<svg width="682.667" height="682.667" viewBox="0 -66 512 512" xmlns="http://www.w3.org/2000/svg" xmlns:xlink="http://www.w3.org/1999/xlink" overflow="hidden"><path d="M461.285 226.508 384.793 221.043 334.238 136.828 308.965 94.6602 308.965 82.9805C308.973 70.3047 298.703 60.0234 286.027 60.0156 283.188 60.0117 280.371 60.5391 277.727 61.5625L205.039 89.6016 210.531 71.168C214.867 55.6719 207.832 39.2461 193.625 31.6914L136.59 1.05078C132.441-1.17578 127.273 0.246094 124.848 4.28125L41.1875 138.25 39.4219 137.227C35.1953 134.797 29.8008 136.258 27.375 140.484 27.3203 140.574 27.2734 140.664 27.2227 140.758L1.03125 190.066C-1.22656 194.324 0.347656 199.602 4.5625 201.934L323.098 378.484C324.406 379.207 325.875 379.586 327.371 379.586L459.035 379.586C488.273 379.559 511.973 355.863 512 326.621L512 280.965C511.906 252.355 489.816 228.637 461.285 226.508ZM366.344 224.617 356.262 227.98 277.273 125.281 297.578 110.035ZM135.652 20.5859 185.273 47.2188C192.152 50.8555 195.59 58.7695 193.555 66.2773L186.262 90.8555 135.59 60.4688 118.043 49.9375ZM83.3867 104.836 87.9063 97.7734 116.949 119.375C131.73 130.473 139.277 148.75 136.633 167.047L135.531 192.559 56.6367 147.086ZM459.035 361.934 329.641 361.934 20.6758 190.676 38.5156 157.133 331.035 325.445C332.379 326.219 333.898 326.625 335.449 326.621L494.344 326.621C494.344 346.121 478.535 361.934 459.035 361.934ZM494.344 308.965 337.805 308.965 277.258 274.105 297.613 253.352C300.977 249.824 300.844 244.234 297.313 240.871 293.855 237.574 288.402 237.629 285.008 240.992L261.457 265.004 227.91 245.672 261.555 218.758C265.359 215.711 265.977 210.152 262.93 206.344 259.883 202.539 254.324 201.922 250.52 204.969L211.473 236.211 182.73 219.684 226.34 183.34C230.09 180.219 230.598 174.652 227.48 170.902 224.359 167.152 218.789 166.645 215.039 169.762L166.418 210.289 152.77 202.434 154.199 168.547C157.469 144.133 147.238 119.867 127.48 105.164L97.4023 82.8008 108.766 64.9609 186.906 111.844C187.957 112.449 189.121 112.824 190.324 112.949 190.535 112.949 190.719 113.02 190.934 113.035 191.145 113.055 191.277 113.098 191.445 113.098 192.535 113.102 193.621 112.902 194.641 112.508L284.063 78.0195C285.699 77.3945 287.531 77.6094 288.98 78.5938 290.434 79.5898 291.297 81.2422 291.285 83.0078L291.285 92.7188 259.504 116.551C255.605 119.48 254.82 125.016 257.75 128.91 257.77 128.938 257.789 128.965 257.809 128.988L346.086 243.75C348.367 246.738 352.301 247.941 355.867 246.742L380.68 238.469 460.008 244.137C479.313 245.566 494.27 261.605 494.344 280.965Z" stroke="#333333" stroke-width="6.37344" fill="#333333"/><path d="M52.9648 256 8.82813 256C3.95313 256 0 259.953 0 264.828 0 269.703 3.95313 273.656 8.82813 273.656L52.9648 273.656C57.8398 273.656 61.793 269.703 61.793 264.828 61.793 259.953 57.8398 256 52.9648 256Z" stroke="#333333" stroke-width="6.37344" fill="#333333"/><path d="M0 317.793C0 322.668 3.95313 326.621 8.82813 326.621L123.586 326.621C128.461 326.621 132.414 322.668 132.414 317.793 132.414 312.918 128.461 308.965 123.586 308.965L8.82813 308.965C3.95313 308.965 0 312.918 0 317.793Z" stroke="#333333" stroke-width="6.37344" fill="#333333"/><path d="M220.691 361.934 8.82813 361.934C3.95313 361.934 0 365.883 0 370.758 0 375.633 3.95313 379.586 8.82813 379.586L220.691 379.586C225.566 379.586 229.516 375.633 229.516 370.758 229.516 365.883 225.566 361.934 220.691 361.934Z" stroke="#333333" stroke-width="6.37344" fill="#333333"/></svg>