<svg width="218" height="217" xmlns="http://www.w3.org/2000/svg" xmlns:xlink="http://www.w3.org/1999/xlink" overflow="hidden"><defs><clipPath id="clip0"><path d="M739 190 957 190 957 407 739 407Z" fill-rule="evenodd" clip-rule="evenodd"/></clipPath></defs><g clip-path="url(#clip0)" transform="translate(-739 -190)"><path d="M920 236C900.15 236 884 252.146 884 271.991 884 285.402 899.458 309.465 909.127 323.215 908.548 323.655 908.034 324.186 907.713 324.893 906.737 327.032 907.581 329.536 909.589 330.67 907.625 331.878 906.873 334.409 907.924 336.513 908.715 338.091 910.301 339 911.954 339 912.63 339 913.316 338.846 913.962 338.526L921.991 334.512 921.993 334.511 922.013 334.501 922.018 334.491C922.617 334.19 923.153 333.761 923.573 333.214 926.891 328.881 956 290.378 956 271.991 956 252.146 939.85 236 920 236ZM920 280.989C915.039 280.989 911 276.951 911 271.991 911 267.031 915.039 262.993 920 262.993 924.961 262.993 929 267.031 929 271.991 929 276.951 924.961 280.989 920 280.989Z" fill="#333333" fill-rule="evenodd"/><path d="M786.99 395.069C796.666 381.289 812 357.36 812 344 812 324.15 795.85 308 776 308 756.15 308 740 324.15 740 344 740 362.391 769.109 400.905 772.427 405.238 773.28 406.349 774.598 407 776 407 776.709 407 777.393 406.83 778.01 406.522L778.013 406.525 786.064 402.5C788.287 401.388 789.188 398.685 788.076 396.462 787.801 395.911 787.427 395.446 786.99 395.069ZM776 353C771.039 353 767 348.961 767 344 767 339.039 771.039 335 776 335 780.961 335 785 339.039 785 344 785 348.961 780.961 353 776 353Z" fill="#333333" fill-rule="evenodd"/><path d="M838.545 365.469 824.466 372.53C822.263 373.634 821.37 376.319 822.472 378.529 823.256 380.096 824.828 381 826.465 381 827.136 381 827.815 380.847 828.455 380.529L842.534 373.468C844.737 372.364 845.63 369.679 844.528 367.469 843.422 365.26 840.74 364.373 838.545 365.469Z" fill="#333333" fill-rule="evenodd"/><path d="M895.546 337.467 881.466 344.528C879.263 345.633 878.37 348.319 879.472 350.528 880.255 352.096 881.827 353 883.464 353 884.135 353 884.814 352.847 885.454 352.528L899.534 345.467C901.737 344.362 902.63 341.677 901.528 339.467 900.427 337.261 897.745 336.375 895.546 337.467Z" fill="#333333" fill-rule="evenodd"/><path d="M810.546 379.468 796.466 386.529C794.263 387.633 793.37 390.319 794.472 392.528 795.255 394.096 796.827 395 798.464 395 799.135 395 799.814 394.847 800.454 394.528L814.534 387.468C816.737 386.363 817.63 383.677 816.528 381.468 815.423 379.258 812.745 378.376 810.546 379.468Z" fill="#333333" fill-rule="evenodd"/><path d="M867.266 351.471 852.573 358.531C850.274 359.635 849.343 362.32 850.492 364.529 851.31 366.096 852.95 367 854.658 367 855.358 367 856.067 366.847 856.734 366.529L871.427 359.469C873.726 358.365 874.657 355.68 873.508 353.471 872.354 351.262 869.565 350.371 867.266 351.471Z" fill="#333333" fill-rule="evenodd"/><path d="M895.411 323C897.157 323 898.822 322.05 899.588 320.445 900.635 318.252 899.619 315.668 897.313 314.671L880.482 307.395C878.15 306.39 875.455 307.373 874.413 309.558 873.365 311.751 874.381 314.335 876.687 315.332L893.518 322.608C894.135 322.877 894.78 323 895.411 323Z" fill="#333333" fill-rule="evenodd"/><path d="M841.413 294.559C840.365 296.752 841.381 299.336 843.687 300.332L860.516 307.608C861.135 307.877 861.779 308 862.41 308 864.156 308 865.822 307.051 866.587 305.446 867.635 303.253 866.619 300.668 864.313 299.672L847.484 292.396C845.165 291.387 842.451 292.375 841.413 294.559Z" fill="#333333" fill-rule="evenodd"/><path d="M831.187 293C832.901 293 834.536 292.027 835.287 290.382 836.316 288.134 835.314 285.486 833.055 284.465L829.947 283.062C838.471 271.508 859 242.101 859 226.747 859 207.036 842.85 191 823 191 803.15 191 787 207.036 787 226.747 787 245.009 816.109 283.251 819.428 287.554 819.873 288.13 820.45 288.563 821.095 288.863 821.123 288.876 821.107 288.888 821.137 288.902L829.328 292.598C829.935 292.874 830.568 293 831.187 293ZM814 226.747C814 221.82 818.039 217.81 823 217.81 827.961 217.81 832 221.82 832 226.747 832 231.673 827.961 235.683 823 235.683 818.039 235.683 814 231.673 814 226.747Z" fill="#333333" fill-rule="evenodd"/></g></svg>