<svg width="164" height="164" xmlns="http://www.w3.org/2000/svg" xmlns:xlink="http://www.w3.org/1999/xlink" overflow="hidden"><defs><clipPath id="clip0"><path d="M541 143 705 143 705 307 541 307Z" fill-rule="evenodd" clip-rule="evenodd"/></clipPath></defs><g clip-path="url(#clip0)" transform="translate(-541 -143)"><path d="M623 144C578.265 144 542 180.265 542 225 542 269.735 578.265 306 623 306 667.735 306 704 269.735 704 225 704 180.265 667.735 144 623 144ZM653.902 185.25 642.699 185.255C633.913 185.255 632.215 189.43 632.215 195.555L632.215 209.062 653.164 209.062 653.154 230.217 632.216 230.217 632.216 284.507 610.365 284.507 610.365 230.217 592.098 230.217 592.098 209.062 610.365 209.062 610.365 193.46C610.365 175.354 621.427 165.493 637.578 165.493L653.904 165.518 653.904 185.25 653.902 185.25Z" fill="#333333" fill-rule="evenodd"/></g></svg>