<svg width="194" height="194" xmlns="http://www.w3.org/2000/svg" xmlns:xlink="http://www.w3.org/1999/xlink" overflow="hidden"><defs><clipPath id="clip0"><path d="M271 442 465 442 465 636 271 636Z" fill-rule="evenodd" clip-rule="evenodd"/></clipPath></defs><g clip-path="url(#clip0)" transform="translate(-271 -442)"><path d="M388.812 463.041C361.896 436.32 318.105 436.32 291.188 463.041 264.271 489.761 264.271 533.239 291.188 559.959 318.105 586.68 361.896 586.68 388.812 559.959 415.729 533.239 415.729 489.761 388.812 463.041ZM379.228 550.444C357.565 571.946 322.436 571.946 300.773 550.44 279.11 528.935 279.11 494.061 300.773 472.56 322.436 451.055 357.561 451.055 379.224 472.56 400.886 494.065 400.891 528.935 379.228 550.444Z" fill="#FFFFFF" fill-rule="evenodd"/><path d="M309.748 484.944C299.054 499.16 298.164 518.719 307.082 533.82 307.765 534.983 309.232 535.345 310.352 534.642 311.469 533.93 311.823 532.417 311.139 531.259 303.246 517.898 304.033 500.533 313.495 487.97 314.306 486.901 314.12 485.355 313.082 484.52 312.049 483.686 310.555 483.875 309.748 484.944Z" fill="#FFFFFF" fill-rule="evenodd"/><path d="M458.977 611.065 408.832 562.954C406.089 560.322 401.709 560.354 398.999 563.019L391.047 570.851C388.342 573.516 388.313 577.83 390.99 580.528L439.832 629.918C445.255 636.369 453.269 636.751 459.459 630.649 465.658 624.556 465.522 616.407 458.977 611.065Z" fill="#FFFFFF" fill-rule="evenodd"/></g></svg>