<svg width="197" height="130" xmlns="http://www.w3.org/2000/svg" xmlns:xlink="http://www.w3.org/1999/xlink" overflow="hidden"><defs><clipPath id="clip0"><path d="M493 403 690 403 690 533 493 533Z" fill-rule="evenodd" clip-rule="evenodd"/></clipPath></defs><g clip-path="url(#clip0)" transform="translate(-493 -403)"><path d="M684.981 467.388 657.122 467.388 661.097 451.217 684.981 451.217C687.204 451.217 689 449.405 689 447.173 689 444.942 687.198 443.132 684.981 443.132L663.085 443.132 667.934 423.415C669.167 418.331 669.794 414.635 669.794 412.435 669.794 409.706 668.882 407.511 667.007 405.718 665.095 403.893 662.823 403.004 660.062 403.004 657.352 403.004 655.324 403.655 654.025 404.936 652.51 406.437 651.475 408.075 650.864 409.945 650.16 412.091 649.404 415.126 648.607 418.957L643.215 443.132 612.976 443.132 607.812 423.961C606.257 418.229 605.007 414.079 604.101 411.629 603.312 409.498 601.844 407.471 599.733 405.603 597.78 403.878 594.886 403.002 591.135 403.002 587.404 403.002 584.472 403.853 582.42 405.531 580.245 407.311 578.66 409.438 577.708 411.85 576.64 414.571 575.398 418.638 574.023 423.94L568.902 443.13 538.792 443.13 533.408 418.991C532.225 413.39 530.859 409.124 529.338 406.28 528.902 405.472 527.578 403 521.942 403 519.133 403 516.852 403.895 514.976 405.735 513.114 407.558 512.209 409.753 512.209 412.431 512.209 414.864 512.833 418.548 514.064 423.389L518.917 443.126 497.019 443.126C494.798 443.126 493 444.936 493 447.167 493 449.398 494.8 451.21 497.019 451.21L520.905 451.21 524.88 467.38 497.019 467.38C494.798 467.38 493 469.194 493 471.421 493 473.657 494.8 475.462 497.019 475.462L526.869 475.462 535.521 510.654C536.16 513.225 536.888 516.02 537.705 519.04 538.462 521.844 539.441 524.288 540.613 526.293 541.692 528.14 543.05 529.526 544.768 530.52 546.456 531.5 548.716 531.998 551.483 531.998 554.895 531.998 557.505 531.19 559.464 529.535 561.529 527.789 562.987 525.813 563.795 523.667 564.732 521.182 566.025 516.986 567.637 511.194L577.34 475.458 604.778 475.458 614.368 511.217C616.037 517.171 617.344 521.429 618.25 523.847 619.028 525.93 620.467 527.852 622.521 529.565 624.459 531.179 627.15 532 630.519 532 634.093 532 636.836 531.166 638.673 529.537 640.657 527.767 642.081 525.687 642.904 523.365 643.836 520.712 645.044 516.43 646.481 510.647L655.133 475.46 684.981 475.46C687.204 475.46 689 473.65 689 471.419 689.002 469.201 687.204 467.388 684.981 467.388ZM641.408 451.219 637.801 467.388 619.51 467.388 615.153 451.219 641.408 451.219ZM591.148 424.638 596.107 443.132 586.124 443.132 591.148 424.638ZM540.594 451.219 566.738 451.219 562.422 467.388 544.201 467.388 540.594 451.219ZM552.498 504.568 546.006 475.471 560.264 475.471 552.498 504.568ZM579.538 467.388 583.928 451.217 598.273 451.217 602.612 467.388 579.538 467.388ZM629.517 504.519 621.689 475.473 635.999 475.473 629.517 504.519Z" fill="#333333" fill-rule="evenodd"/></g></svg>